<svg id="图层_1" data-name="图层 1" xmlns="http://www.w3.org/2000/svg" viewBox="0 0 1516.33 487.23"><defs><style>.cls-1,.cls-2{fill:#dfe5e8;}.cls-2{font-size:350px;font-family:Pacifico;}</style></defs><path class="cls-1" d="M389.27,940.65a139.26,139.26,0,0,1,18.09-9.33c3.83-1.71-1.72.64-.08,0,.82-.31,1.62-.67,2.43-1,2.12-.86,4.26-1.68,6.41-2.48,4.45-1.67,8.95-3.23,13.47-4.72,23.06-7.6,46.68-13.51,70.36-18.84,31.54-7.12,63.34-13.07,95.22-18.48,38.26-6.48,79.38-12.52,115.81-17.33,98.83-13,198.09-22.84,297.44-30.89,121.1-9.82,242.42-16.9,363.81-22q207.55-8.64,415.34-9.5,27.48-.12,54.94-.12c19.31,0,19.34-30,0-30q-212.35,0-424.64,7.82-186.57,7-372.81,20.88C942.72,812.56,840.48,822.16,738.63,835c-75.94,9.54-151.92,20.4-226.86,36.13-43.41,9.12-89.72,18.47-129.48,39-2.78,1.43-5.51,3-8.16,4.65-16.25,10.32-1.22,36.29,15.14,25.9Z" transform="translate(-340.68 -462)"/><text class="cls-2" transform="translate(0 328.3)">Web Blog</text></svg>